<svg xmlns="http://www.w3.org/2000/svg" xmlns:svg="http://www.w3.org/2000/svg" id="svg557" width="686" height="448" fill="#000" fill-opacity="0" stroke="#000" stroke-dasharray="none" stroke-dashoffset="0" stroke-linecap="square" stroke-linejoin="miter" stroke-miterlimit="10" stroke-opacity="0" stroke-width="1" color-interpolation="auto" color-rendering="auto" font-family="'Dialog'" font-size="12" font-style="normal" font-weight="normal" image-rendering="auto" shape-rendering="auto" text-rendering="auto" version="1.1"><metadata id="metadata561"/><defs id="genericDefs"><defs id="defs1"><clipPath id="clipPath1" clipPathUnits="userSpaceOnUse"><path id="path3" d="M-7 -7 L81 -7 L81 453 L-7 453 L-7 -7 Z"/></clipPath><clipPath id="clipPath2" clipPathUnits="userSpaceOnUse"><path id="path6" d="M-7 -7 L19 -7 L19 363 L-7 363 L-7 -7 Z"/></clipPath><clipPath id="clipPath3" clipPathUnits="userSpaceOnUse"><path id="path9" d="M-7 -7 L19 -7 L19 164 L-7 164 L-7 -7 Z"/></clipPath><clipPath id="clipPath4" clipPathUnits="userSpaceOnUse"><path id="path12" d="M-7 -7 L211 -7 L211 111 L-7 111 L-7 -7 Z"/></clipPath><clipPath id="clipPath5" clipPathUnits="userSpaceOnUse"><path id="path15" d="M-7 -7 L-7 111 L211 111 L211 -7 Z"/></clipPath><clipPath id="clipPath6" clipPathUnits="userSpaceOnUse"><path id="path18" d="M0 0 L0 17 L81 17 L81 0 Z"/></clipPath><clipPath id="clipPath7" clipPathUnits="userSpaceOnUse"><path id="path21" d="M-7 -7 L19 -7 L19 53 L-7 53 L-7 -7 Z"/></clipPath><clipPath id="clipPath8" clipPathUnits="userSpaceOnUse"><path id="path24" d="M-7 -7 L19 -7 L19 93 L-7 93 L-7 -7 Z"/></clipPath><clipPath id="clipPath9" clipPathUnits="userSpaceOnUse"><path id="path27" d="M-7 -7 L361 -7 L361 171 L-7 171 L-7 -7 Z"/></clipPath><clipPath id="clipPath10" clipPathUnits="userSpaceOnUse"><path id="path30" d="M-7 -7 L-7 171 L361 171 L361 -7 Z"/></clipPath><clipPath id="clipPath11" clipPathUnits="userSpaceOnUse"><path id="path33" d="M0 0 L0 17 L82 17 L82 0 Z"/></clipPath><clipPath id="clipPath12" clipPathUnits="userSpaceOnUse"><path id="path36" d="M-7 -7 L19 -7 L19 23 L-7 23 L-7 -7 Z"/></clipPath><clipPath id="clipPath13" clipPathUnits="userSpaceOnUse"><path id="path39" d="M-70 -14 L140 -14 L140 28 L-70 28 L-70 -14 Z"/></clipPath><clipPath id="clipPath14" clipPathUnits="userSpaceOnUse"><path id="path42" d="M0 0 L246 0 L246 104 L0 104 L0 0 Z"/></clipPath><clipPath id="clipPath15" clipPathUnits="userSpaceOnUse"><path id="path45" d="M172 30 L172 44 L72 44 L72 30 ZM0 0 L0 104 L246 104 L246 74 L227 74 L227 60 L246 60 L246 4 L223 4 L223 0 L184 0 L184 14 L62 14 L62 0 Z"/></clipPath><clipPath id="clipPath16" clipPathUnits="userSpaceOnUse"><path id="path48" d="M184 30 L184 44 L62 44 L62 30 ZM172 60 L172 74 L72 74 L72 60 ZM0 0 L0 104 L227 104 L227 90 L246 90 L246 34 L223 34 L223 20 L246 20 L246 0 Z"/></clipPath><clipPath id="clipPath17" clipPathUnits="userSpaceOnUse"><path id="path51" d="M157 30 L157 44 L77 44 L77 30 ZM22 0 L22 14 L0 14 L0 104 L246 104 L246 0 Z"/></clipPath><clipPath id="clipPath18" clipPathUnits="userSpaceOnUse"><path id="path54" d="M162 30 L162 44 L73 44 L73 30 ZM0 0 L0 40 L34 40 L34 54 L0 54 L0 70 L22 70 L22 84 L0 84 L0 104 L77 104 L77 100 L157 100 L157 104 L246 104 L246 0 Z"/></clipPath><clipPath id="clipPath19" clipPathUnits="userSpaceOnUse"><path id="path57" d="M0 0 L396 0 L396 104 L0 104 L0 0 Z"/></clipPath><clipPath id="clipPath20" clipPathUnits="userSpaceOnUse"><path id="path60" d="M236 30 L236 44 L160 44 L160 30 ZM0 0 L0 104 L396 104 L396 65 L367 65 L367 51 L396 51 L396 0 Z"/></clipPath><clipPath id="clipPath21" clipPathUnits="userSpaceOnUse"><path id="path63" d="M226 30 L226 44 L155 44 L155 30 ZM0 0 L0 104 L396 104 L396 0 Z"/></clipPath><clipPath id="clipPath22" clipPathUnits="userSpaceOnUse"><path id="path66" d="M178 30 L178 44 L61 44 L61 30 ZM170 60 L170 74 L74 74 L74 60 ZM0 0 L0 102 L20 102 L20 104 L246 104 L246 0 Z"/></clipPath><clipPath id="clipPath23" clipPathUnits="userSpaceOnUse"><path id="path69" d="M170 30 L170 44 L74 44 L74 30 ZM0 0 L0 72 L20 72 L20 86 L0 86 L0 104 L246 104 L246 0 L178 0 L178 14 L61 14 L61 0 Z"/></clipPath><clipPath id="clipPath24" clipPathUnits="userSpaceOnUse"><path id="path72" d="M0 0 L256 0 L256 104 L0 104 L0 0 Z"/></clipPath><clipPath id="clipPath25" clipPathUnits="userSpaceOnUse"><path id="path75" d="M182 31 L182 45 L67 45 L67 31 ZM0 0 L0 104 L256 104 L256 94 L221 94 L221 80 L256 80 L256 0 Z"/></clipPath><clipPath id="clipPath26" clipPathUnits="userSpaceOnUse"><path id="path78" d="M180 31 L180 45 L72 45 L72 31 ZM0 0 L0 79 L12 79 L12 93 L0 93 L0 104 L256 104 L256 3 L234 3 L234 0 Z"/></clipPath><clipPath id="clipPath27" clipPathUnits="userSpaceOnUse"><path id="path81" d="M0 0 L406 0 L406 104 L0 104 L0 0 Z"/></clipPath><clipPath id="clipPath28" clipPathUnits="userSpaceOnUse"><path id="path84" d="M242 31 L242 45 L160 45 L160 31 ZM0 0 L0 104 L406 104 L406 0 Z"/></clipPath><clipPath id="clipPath29" clipPathUnits="userSpaceOnUse"><path id="path87" d="M-82 -14 L164 -14 L164 28 L-82 28 L-82 -14 Z"/></clipPath><clipPath id="clipPath30" clipPathUnits="userSpaceOnUse"><path id="path90" d="M-108 -14 L216 -14 L216 28 L-108 28 L-108 -14 Z"/></clipPath><clipPath id="clipPath31" clipPathUnits="userSpaceOnUse"><path id="path93" d="M-115 -14 L230 -14 L230 28 L-115 28 L-115 -14 Z"/></clipPath><clipPath id="clipPath32" clipPathUnits="userSpaceOnUse"><path id="path96" d="M-96 -14 L192 -14 L192 28 L-96 28 L-96 -14 Z"/></clipPath><clipPath id="clipPath33" clipPathUnits="userSpaceOnUse"><path id="path99" d="M-117 -14 L234 -14 L234 28 L-117 28 L-117 -14 Z"/></clipPath><clipPath id="clipPath34" clipPathUnits="userSpaceOnUse"><path id="path102" d="M-71 -14 L142 -14 L142 28 L-71 28 L-71 -14 Z"/></clipPath><clipPath id="clipPath35" clipPathUnits="userSpaceOnUse"><path id="path105" d="M-76 -14 L152 -14 L152 28 L-76 28 L-76 -14 Z"/></clipPath><clipPath id="clipPath36" clipPathUnits="userSpaceOnUse"><path id="path108" d="M-89 -14 L178 -14 L178 28 L-89 28 L-89 -14 Z"/></clipPath><clipPath id="clipPath37" clipPathUnits="userSpaceOnUse"><path id="path111" d="M-80 -14 L160 -14 L160 28 L-80 28 L-80 -14 Z"/></clipPath><clipPath id="clipPath38" clipPathUnits="userSpaceOnUse"><path id="path114" d="M-122 -14 L244 -14 L244 28 L-122 28 L-122 -14 Z"/></clipPath><clipPath id="clipPath39" clipPathUnits="userSpaceOnUse"><path id="path117" d="M-100 -14 L200 -14 L200 28 L-100 28 L-100 -14 Z"/></clipPath></defs></defs><g style="fill:#fff;fill-opacity:1;stroke:#fff;stroke-opacity:1;text-rendering:geometricPrecision" id="g123"><rect style="stroke:none" id="rect121" width="686" height="448" x="0" y="0"/></g><g style="font-size:11px;font-family:sans-serif;fill:#f5f5f5;fill-opacity:1;stroke:#f5f5f5;stroke-opacity:1;image-rendering:optimizeQuality;text-rendering:geometricPrecision" id="g127" font-size="11" transform="translate(2,2)"><rect style="stroke:none" id="rect125" width="69" height="35" x="0" y="0" clip-path="url(#clipPath1)"/></g><g style="font-size:11px;font-family:sans-serif;fill:#000;fill-opacity:1;stroke:#000;stroke-linecap:butt;stroke-linejoin:round;stroke-miterlimit:0;stroke-opacity:1;image-rendering:optimizeQuality;text-rendering:geometricPrecision" id="g133" stroke-miterlimit="0" font-size="11" transform="translate(2,2)"><rect style="fill:none" id="rect129" width="69" height="35" x="0" y="0" clip-path="url(#clipPath1)"/><line style="fill:none;stroke-linejoin:bevel;stroke-dasharray:8,3" id="line131" x1="34" x2="34" y1="35" y2="442" clip-path="url(#clipPath1)"/></g><g style="font-size:11px;font-family:sans-serif;fill:#d5e8d4;fill-opacity:1;stroke:#d5e8d4;stroke-opacity:1;image-rendering:optimizeQuality;text-rendering:geometricPrecision" id="g137" font-size="11" transform="translate(152,2)"><rect style="stroke:none" id="rect135" width="69" height="35" x="0" y="0" clip-path="url(#clipPath1)"/></g><g style="font-size:11px;font-family:sans-serif;fill:#000;fill-opacity:1;stroke:#000;stroke-linecap:butt;stroke-linejoin:round;stroke-miterlimit:0;stroke-opacity:1;image-rendering:optimizeQuality;text-rendering:geometricPrecision" id="g143" stroke-miterlimit="0" font-size="11" transform="translate(152,2)"><rect style="fill:none" id="rect139" width="69" height="35" x="0" y="0" clip-path="url(#clipPath1)"/><line style="fill:none;stroke-linejoin:bevel;stroke-dasharray:8,3" id="line141" x1="34" x2="34" y1="35" y2="442" clip-path="url(#clipPath1)"/></g><g style="font-size:11px;font-family:sans-serif;fill:#dae8fc;fill-opacity:1;stroke:#dae8fc;stroke-opacity:1;image-rendering:optimizeQuality;text-rendering:geometricPrecision" id="g147" font-size="11" transform="translate(302,2)"><rect style="stroke:none" id="rect145" width="69" height="35" x="0" y="0" clip-path="url(#clipPath1)"/></g><g style="font-size:11px;font-family:sans-serif;fill:#000;fill-opacity:1;stroke:#000;stroke-linecap:butt;stroke-linejoin:round;stroke-miterlimit:0;stroke-opacity:1;image-rendering:optimizeQuality;text-rendering:geometricPrecision" id="g153" stroke-miterlimit="0" font-size="11" transform="translate(302,2)"><rect style="fill:none" id="rect149" width="69" height="35" x="0" y="0" clip-path="url(#clipPath1)"/><line style="fill:none;stroke-linejoin:bevel;stroke-dasharray:8,3" id="line151" x1="34" x2="34" y1="35" y2="442" clip-path="url(#clipPath1)"/></g><g style="font-size:11px;font-family:sans-serif;fill:#dae8fc;fill-opacity:1;stroke:#dae8fc;stroke-opacity:1;image-rendering:optimizeQuality;text-rendering:geometricPrecision" id="g157" font-size="11" transform="translate(462,2)"><rect style="stroke:none" id="rect155" width="69" height="35" x="0" y="0" clip-path="url(#clipPath1)"/></g><g style="font-size:11px;font-family:sans-serif;fill:#000;fill-opacity:1;stroke:#000;stroke-linecap:butt;stroke-linejoin:round;stroke-miterlimit:0;stroke-opacity:1;image-rendering:optimizeQuality;text-rendering:geometricPrecision" id="g163" stroke-miterlimit="0" font-size="11" transform="translate(462,2)"><rect style="fill:none" id="rect159" width="69" height="35" x="0" y="0" clip-path="url(#clipPath1)"/><line style="fill:none;stroke-linejoin:bevel;stroke-dasharray:8,3" id="line161" x1="34" x2="34" y1="35" y2="442" clip-path="url(#clipPath1)"/></g><g style="font-size:11px;font-family:sans-serif;fill:#ffe6cc;fill-opacity:1;stroke:#ffe6cc;stroke-opacity:1;image-rendering:optimizeQuality;text-rendering:geometricPrecision" id="g167" font-size="11" transform="translate(612,2)"><rect style="stroke:none" id="rect165" width="69" height="35" x="0" y="0" clip-path="url(#clipPath1)"/></g><g style="font-size:11px;font-family:sans-serif;fill:#000;fill-opacity:1;stroke:#000;stroke-linecap:butt;stroke-linejoin:round;stroke-miterlimit:0;stroke-opacity:1;image-rendering:optimizeQuality;text-rendering:geometricPrecision" id="g173" stroke-miterlimit="0" font-size="11" transform="translate(612,2)"><rect style="fill:none" id="rect169" width="69" height="35" x="0" y="0" clip-path="url(#clipPath1)"/><line style="fill:none;stroke-linejoin:bevel;stroke-dasharray:8,3" id="line171" x1="34" x2="34" y1="35" y2="442" clip-path="url(#clipPath1)"/></g><g style="font-size:11px;font-family:sans-serif;fill:#f5f5f5;fill-opacity:1;stroke:#f5f5f5;stroke-opacity:1;image-rendering:optimizeQuality;text-rendering:geometricPrecision" id="g177" font-size="11" transform="translate(33,72)"><rect style="stroke:none" id="rect175" width="8" height="352" x="0" y="0" clip-path="url(#clipPath2)"/></g><g style="font-size:11px;font-family:sans-serif;fill:#000;fill-opacity:1;stroke:#000;stroke-linecap:butt;stroke-linejoin:round;stroke-miterlimit:0;stroke-opacity:1;image-rendering:optimizeQuality;text-rendering:geometricPrecision" id="g181" stroke-miterlimit="0" font-size="11" transform="translate(33,72)"><rect style="fill:none" id="rect179" width="8" height="352" x="0" y="0" clip-path="url(#clipPath2)"/></g><g style="font-size:11px;font-family:sans-serif;fill:#dae8fc;fill-opacity:1;stroke:#dae8fc;stroke-opacity:1;image-rendering:optimizeQuality;text-rendering:geometricPrecision" id="g185" font-size="11" transform="translate(493,72)"><rect style="stroke:none" id="rect183" width="8" height="153" x="0" y="0" clip-path="url(#clipPath3)"/></g><g style="font-size:11px;font-family:sans-serif;fill:#000;fill-opacity:1;stroke:#000;stroke-linecap:butt;stroke-linejoin:round;stroke-miterlimit:0;stroke-opacity:1;image-rendering:optimizeQuality;text-rendering:geometricPrecision" id="g189" stroke-miterlimit="0" font-size="11" transform="translate(493,72)"><rect style="fill:none" id="rect187" width="8" height="153" x="0" y="0" clip-path="url(#clipPath3)"/></g><g style="font-size:11px;font-family:sans-serif;fill:#000;fill-opacity:1;stroke:#000;stroke-linecap:butt;stroke-linejoin:round;stroke-miterlimit:0;stroke-opacity:1;image-rendering:optimizeQuality;text-rendering:geometricPrecision" id="g193" stroke-miterlimit="0" font-size="11" transform="translate(472,102)"><rect style="fill:none" id="rect191" width="200" height="100" x="0" y="0" clip-path="url(#clipPath5)"/></g><g style="font-size:11px;font-family:sans-serif;fill:#fff;fill-opacity:1;stroke:#fff;stroke-opacity:1;image-rendering:optimizeQuality;text-rendering:geometricPrecision" id="g197" font-size="11" transform="translate(472,102)"><path style="stroke:none" id="path195" d="m 80,0 v 8 l -6,8 H 0 V 0 Z" clip-path="url(#clipPath5)"/></g><g style="font-size:11px;font-family:sans-serif;fill:#000;fill-opacity:1;stroke:#000;stroke-linecap:butt;stroke-linejoin:round;stroke-miterlimit:0;stroke-opacity:1;image-rendering:optimizeQuality;text-rendering:geometricPrecision" id="g201" stroke-miterlimit="0" font-size="11" transform="translate(472,102)"><path style="fill:none" id="path199" d="m 80,0 v 8 l -6,8 H 0 V 0 Z" clip-path="url(#clipPath5)"/></g><g style="font-weight:700;font-size:11px;font-family:sans-serif;fill:#000;fill-opacity:1;stroke:#000;stroke-opacity:1;image-rendering:optimizeQuality;text-rendering:geometricPrecision" id="g207" font-size="11" font-weight="bold" transform="translate(472,102)"><text style="stroke:none" id="text203" x="12" y="11" clip-path="url(#clipPath6)" xml:space="preserve">sd</text><text style="font-weight:400;stroke:none" id="text205" x="27" y="11" clip-path="url(#clipPath6)" font-weight="normal" xml:space="preserve">Outputs</text></g><g style="font-size:11px;font-family:sans-serif;fill:#ffe6cc;fill-opacity:1;stroke:#ffe6cc;stroke-opacity:1;image-rendering:optimizeQuality;text-rendering:geometricPrecision" id="g211" font-size="11" transform="translate(643,142)"><rect style="stroke:none" id="rect209" width="8" height="42" x="0" y="0" clip-path="url(#clipPath7)"/></g><g style="font-size:11px;font-family:sans-serif;fill:#000;fill-opacity:1;stroke:#000;stroke-linecap:butt;stroke-linejoin:round;stroke-miterlimit:0;stroke-opacity:1;image-rendering:optimizeQuality;text-rendering:geometricPrecision" id="g215" stroke-miterlimit="0" font-size="11" transform="translate(643,142)"><rect style="fill:none" id="rect213" width="8" height="42" x="0" y="0" clip-path="url(#clipPath7)"/></g><g style="font-size:11px;font-family:sans-serif;fill:#d5e8d4;fill-opacity:1;stroke:#d5e8d4;stroke-opacity:1;image-rendering:optimizeQuality;text-rendering:geometricPrecision" id="g219" font-size="11" transform="translate(183,262)"><rect style="stroke:none" id="rect217" width="8" height="82" x="0" y="0" clip-path="url(#clipPath8)"/></g><g style="font-size:11px;font-family:sans-serif;fill:#000;fill-opacity:1;stroke:#000;stroke-linecap:butt;stroke-linejoin:round;stroke-miterlimit:0;stroke-opacity:1;image-rendering:optimizeQuality;text-rendering:geometricPrecision" id="g223" stroke-miterlimit="0" font-size="11" transform="translate(183,262)"><rect style="fill:none" id="rect221" width="8" height="82" x="0" y="0" clip-path="url(#clipPath8)"/></g><g style="font-size:11px;font-family:sans-serif;fill:#000;fill-opacity:1;stroke:#000;stroke-linecap:butt;stroke-linejoin:round;stroke-miterlimit:0;stroke-opacity:1;image-rendering:optimizeQuality;text-rendering:geometricPrecision" id="g227" stroke-miterlimit="0" font-size="11" transform="translate(12,222)"><rect style="fill:none" id="rect225" width="350" height="160" x="0" y="0" clip-path="url(#clipPath10)"/></g><g style="font-size:11px;font-family:sans-serif;fill:#fff;fill-opacity:1;stroke:#fff;stroke-opacity:1;image-rendering:optimizeQuality;text-rendering:geometricPrecision" id="g231" font-size="11" transform="translate(12,222)"><path style="stroke:none" id="path229" d="m 81,0 v 8 l -6,8 H 0 V 0 Z" clip-path="url(#clipPath10)"/></g><g style="font-size:11px;font-family:sans-serif;fill:#000;fill-opacity:1;stroke:#000;stroke-linecap:butt;stroke-linejoin:round;stroke-miterlimit:0;stroke-opacity:1;image-rendering:optimizeQuality;text-rendering:geometricPrecision" id="g235" stroke-miterlimit="0" font-size="11" transform="translate(12,222)"><path style="fill:none" id="path233" d="m 81,0 v 8 l -6,8 H 0 V 0 Z" clip-path="url(#clipPath10)"/></g><g style="font-weight:700;font-size:11px;font-family:sans-serif;fill:#000;fill-opacity:1;stroke:#000;stroke-opacity:1;image-rendering:optimizeQuality;text-rendering:geometricPrecision" id="g241" font-size="11" font-weight="bold" transform="translate(12,222)"><text style="stroke:none" id="text237" x="12" y="11" clip-path="url(#clipPath11)" xml:space="preserve">sd</text><text style="font-weight:400;stroke:none" id="text239" x="27" y="11" clip-path="url(#clipPath11)" font-weight="normal" xml:space="preserve">Protocol</text></g><g style="font-size:11px;font-family:sans-serif;fill:#dae8fc;fill-opacity:1;stroke:#dae8fc;stroke-opacity:1;image-rendering:optimizeQuality;text-rendering:geometricPrecision" id="g245" font-size="11" transform="translate(333,72)"><rect style="stroke:none" id="rect243" width="8" height="352" x="0" y="0" clip-path="url(#clipPath2)"/></g><g style="font-size:11px;font-family:sans-serif;fill:#000;fill-opacity:1;stroke:#000;stroke-linecap:butt;stroke-linejoin:round;stroke-miterlimit:0;stroke-opacity:1;image-rendering:optimizeQuality;text-rendering:geometricPrecision" id="g249" stroke-miterlimit="0" font-size="11" transform="translate(333,72)"><rect style="fill:none" id="rect247" width="8" height="352" x="0" y="0" clip-path="url(#clipPath2)"/></g><g style="font-size:11px;font-family:sans-serif;fill:#ffe6cc;fill-opacity:1;stroke:#ffe6cc;stroke-opacity:1;image-rendering:optimizeQuality;text-rendering:geometricPrecision" id="g253" font-size="11" transform="translate(643,402)"><rect style="stroke:none" id="rect251" width="8" height="12" x="0" y="0" clip-path="url(#clipPath12)"/></g><g style="font-size:11px;font-family:sans-serif;fill:#000;fill-opacity:1;stroke:#000;stroke-linecap:butt;stroke-linejoin:round;stroke-miterlimit:0;stroke-opacity:1;image-rendering:optimizeQuality;text-rendering:geometricPrecision" id="g257" stroke-miterlimit="0" font-size="11" transform="translate(643,402)"><rect style="fill:none" id="rect255" width="8" height="12" x="0" y="0" clip-path="url(#clipPath12)"/></g><g style="font-size:11px;font-family:sans-serif;fill:#000;fill-opacity:1;stroke:#000;stroke-opacity:1;image-rendering:optimizeQuality;text-rendering:geometricPrecision" id="g261" font-size="11" transform="translate(612,2)"><text style="stroke:none" id="text259" x="21" y="11" clip-path="url(#clipPath13)" xml:space="preserve">Node</text></g><g style="font-size:11px;font-family:sans-serif;fill:#000;fill-opacity:1;stroke:#000;stroke-opacity:1;image-rendering:optimizeQuality;text-rendering:geometricPrecision" id="g265" font-size="11" transform="translate(462,2)"><text style="stroke:none" id="text263" x="10" y="11" clip-path="url(#clipPath13)" xml:space="preserve">SW wallet</text></g><g style="font-size:11px;font-family:sans-serif;fill:#000;fill-opacity:1;stroke:#000;stroke-opacity:1;image-rendering:optimizeQuality;text-rendering:geometricPrecision" id="g269" font-size="11" transform="translate(302,2)"><text style="stroke:none" id="text267" x="18" y="11" clip-path="url(#clipPath13)" xml:space="preserve">Client</text></g><g style="font-size:11px;font-family:sans-serif;fill:#000;fill-opacity:1;stroke:#000;stroke-opacity:1;image-rendering:optimizeQuality;text-rendering:geometricPrecision" id="g273" font-size="11" transform="translate(152,2)"><text style="stroke:none" id="text271" x="16" y="11" clip-path="url(#clipPath13)" xml:space="preserve">Trezor</text></g><g style="font-size:11px;font-family:sans-serif;fill:#000;fill-opacity:1;stroke:#000;stroke-opacity:1;image-rendering:optimizeQuality;text-rendering:geometricPrecision" id="g277" font-size="11" transform="translate(2,2)"><text style="stroke:none" id="text275" x="23" y="11" clip-path="url(#clipPath13)" xml:space="preserve">User</text></g><g style="font-size:11px;font-family:sans-serif;fill:#000;fill-opacity:1;stroke:#000;stroke-linecap:butt;stroke-linejoin:round;stroke-miterlimit:0;stroke-dasharray:8,3;stroke-opacity:1;image-rendering:optimizeQuality;text-rendering:geometricPrecision" id="g285" stroke-miterlimit="0" font-size="11" transform="translate(-9,252)"><line style="fill:none" id="line279" x1="50" x2="192" y1="50" y2="50" clip-path="url(#clipPath15)"/><line style="fill:none;stroke-miterlimit:10;stroke-dasharray:none" id="line281" x1="192" x2="180" y1="50" y2="44" stroke-miterlimit="10" clip-path="url(#clipPath15)"/><line style="fill:none;stroke-miterlimit:10;stroke-dasharray:none" id="line283" x1="192" x2="180" y1="50" y2="56" stroke-miterlimit="10" clip-path="url(#clipPath15)"/></g><g style="font-size:11px;font-family:sans-serif;fill:#000;fill-opacity:1;stroke:#000;stroke-linecap:butt;stroke-linejoin:round;stroke-opacity:1;image-rendering:optimizeQuality;text-rendering:geometricPrecision" id="g293" font-size="11" transform="translate(-9,222)"><line style="fill:none" id="line287" x1="192" x2="50" y1="50" y2="50" clip-path="url(#clipPath16)"/><line style="fill:none" id="line289" x1="50" x2="62" y1="50" y2="56" clip-path="url(#clipPath16)"/><line style="fill:none" id="line291" x1="50" x2="62" y1="50" y2="44" clip-path="url(#clipPath16)"/></g><g style="font-size:11px;font-family:sans-serif;fill:#000;fill-opacity:1;stroke:#000;stroke-linecap:butt;stroke-linejoin:round;stroke-miterlimit:0;stroke-dasharray:8,3;stroke-opacity:1;image-rendering:optimizeQuality;text-rendering:geometricPrecision" id="g301" stroke-miterlimit="0" font-size="11" transform="translate(141,282)"><line style="fill:none" id="line295" x1="50" x2="192" y1="50" y2="50" clip-path="url(#clipPath17)"/><line style="fill:none;stroke-miterlimit:10;stroke-dasharray:none" id="line297" x1="192" x2="180" y1="50" y2="44" stroke-miterlimit="10" clip-path="url(#clipPath17)"/><line style="fill:none;stroke-miterlimit:10;stroke-dasharray:none" id="line299" x1="192" x2="180" y1="50" y2="56" stroke-miterlimit="10" clip-path="url(#clipPath17)"/></g><g style="font-size:11px;font-family:sans-serif;fill:#000;fill-opacity:1;stroke:#000;stroke-linecap:butt;stroke-linejoin:round;stroke-opacity:1;image-rendering:optimizeQuality;text-rendering:geometricPrecision" id="g309" font-size="11" transform="translate(141,212)"><line style="fill:none" id="line303" x1="192" x2="50" y1="50" y2="50" clip-path="url(#clipPath18)"/><line style="fill:none" id="line305" x1="50" x2="62" y1="50" y2="56" clip-path="url(#clipPath18)"/><line style="fill:none" id="line307" x1="50" x2="62" y1="50" y2="44" clip-path="url(#clipPath18)"/></g><g style="font-size:11px;font-family:sans-serif;fill:#000;fill-opacity:1;stroke:#000;stroke-linecap:butt;stroke-linejoin:round;stroke-opacity:1;image-rendering:optimizeQuality;text-rendering:geometricPrecision" id="g317" font-size="11" transform="translate(-9,22)"><line style="fill:none" id="line311" x1="50" x2="342" y1="50" y2="50" clip-path="url(#clipPath20)"/><line style="fill:none" id="line313" x1="342" x2="330" y1="50" y2="44" clip-path="url(#clipPath20)"/><line style="fill:none" id="line315" x1="342" x2="330" y1="50" y2="56" clip-path="url(#clipPath20)"/></g><g style="font-size:11px;font-family:sans-serif;fill:#000;fill-opacity:1;stroke:#000;stroke-linecap:butt;stroke-linejoin:round;stroke-miterlimit:0;stroke-dasharray:8,3;stroke-opacity:1;image-rendering:optimizeQuality;text-rendering:geometricPrecision" id="g325" stroke-miterlimit="0" font-size="11" transform="translate(-9,362)"><line style="fill:none" id="line319" x1="342" x2="50" y1="50" y2="50" clip-path="url(#clipPath21)"/><line style="fill:none;stroke-miterlimit:10;stroke-dasharray:none" id="line321" x1="50" x2="62" y1="50" y2="56" stroke-miterlimit="10" clip-path="url(#clipPath21)"/><line style="fill:none;stroke-miterlimit:10;stroke-dasharray:none" id="line323" x1="50" x2="62" y1="50" y2="44" stroke-miterlimit="10" clip-path="url(#clipPath21)"/></g><g style="font-size:11px;font-family:sans-serif;fill:#000;fill-opacity:1;stroke:#000;stroke-linecap:butt;stroke-linejoin:round;stroke-opacity:1;image-rendering:optimizeQuality;text-rendering:geometricPrecision" id="g333" font-size="11" transform="translate(451,92)"><line style="fill:none" id="line327" x1="50" x2="192" y1="50" y2="50" clip-path="url(#clipPath22)"/><line style="fill:none" id="line329" x1="192" x2="180" y1="50" y2="44" clip-path="url(#clipPath22)"/><line style="fill:none" id="line331" x1="192" x2="180" y1="50" y2="56" clip-path="url(#clipPath22)"/></g><g style="font-size:11px;font-family:sans-serif;fill:#000;fill-opacity:1;stroke:#000;stroke-linecap:butt;stroke-linejoin:round;stroke-miterlimit:0;stroke-dasharray:8,3;stroke-opacity:1;image-rendering:optimizeQuality;text-rendering:geometricPrecision" id="g341" stroke-miterlimit="0" font-size="11" transform="translate(451,122)"><line style="fill:none" id="line335" x1="192" x2="50" y1="50" y2="50" clip-path="url(#clipPath23)"/><line style="fill:none;stroke-miterlimit:10;stroke-dasharray:none" id="line337" x1="50" x2="62" y1="50" y2="56" stroke-miterlimit="10" clip-path="url(#clipPath23)"/><line style="fill:none;stroke-miterlimit:10;stroke-dasharray:none" id="line339" x1="50" x2="62" y1="50" y2="44" stroke-miterlimit="10" clip-path="url(#clipPath23)"/></g><g style="font-size:11px;font-family:sans-serif;fill:#000;fill-opacity:1;stroke:#000;stroke-linecap:butt;stroke-linejoin:round;stroke-opacity:1;image-rendering:optimizeQuality;text-rendering:geometricPrecision" id="g349" font-size="11" transform="translate(291,42)"><line style="fill:none" id="line343" x1="50" x2="202" y1="50" y2="50" clip-path="url(#clipPath25)"/><line style="fill:none" id="line345" x1="202" x2="190" y1="50" y2="44" clip-path="url(#clipPath25)"/><line style="fill:none" id="line347" x1="202" x2="190" y1="50" y2="56" clip-path="url(#clipPath25)"/></g><g style="font-size:11px;font-family:sans-serif;fill:#000;fill-opacity:1;stroke:#000;stroke-linecap:butt;stroke-linejoin:round;stroke-miterlimit:0;stroke-dasharray:8,3;stroke-opacity:1;image-rendering:optimizeQuality;text-rendering:geometricPrecision" id="g357" stroke-miterlimit="0" font-size="11" transform="translate(291,163)"><line style="fill:none" id="line351" x1="202" x2="50" y1="50" y2="50" clip-path="url(#clipPath26)"/><line style="fill:none;stroke-miterlimit:10;stroke-dasharray:none" id="line353" x1="50" x2="62" y1="50" y2="56" stroke-miterlimit="10" clip-path="url(#clipPath26)"/><line style="fill:none;stroke-miterlimit:10;stroke-dasharray:none" id="line355" x1="50" x2="62" y1="50" y2="44" stroke-miterlimit="10" clip-path="url(#clipPath26)"/></g><g style="font-size:11px;font-family:sans-serif;fill:#000;fill-opacity:1;stroke:#000;stroke-linecap:butt;stroke-linejoin:round;stroke-opacity:1;image-rendering:optimizeQuality;text-rendering:geometricPrecision" id="g365" font-size="11" transform="translate(291,352)"><line style="fill:none" id="line359" x1="50" x2="352" y1="50" y2="50" clip-path="url(#clipPath28)"/><line style="fill:none" id="line361" x1="352" x2="340" y1="50" y2="44" clip-path="url(#clipPath28)"/><line style="fill:none" id="line363" x1="352" x2="340" y1="50" y2="56" clip-path="url(#clipPath28)"/></g><g style="font-size:11px;font-family:sans-serif;fill:#fff;fill-opacity:1;stroke:#fff;stroke-opacity:1;image-rendering:optimizeQuality;text-rendering:geometricPrecision" id="g371" font-size="11" transform="translate(451,383)"><rect style="stroke:none" id="rect367" width="82" height="14" x="0" y="0" clip-path="url(#clipPath29)"/><text style="fill:#000;stroke:none" id="text369" x="9" y="11" clip-path="url(#clipPath29)" xml:space="preserve">1.5: submit</text></g><g style="font-size:11px;font-family:sans-serif;fill:#fff;fill-opacity:1;stroke:#fff;stroke-opacity:1;image-rendering:optimizeQuality;text-rendering:geometricPrecision" id="g377" font-size="11" transform="translate(363,194)"><rect style="stroke:none" id="rect373" width="108" height="14" x="0" y="0" clip-path="url(#clipPath30)"/><text style="fill:#000;stroke:none" id="text375" x="10" y="11" clip-path="url(#clipPath30)" xml:space="preserve">1.2: unsigned tx</text></g><g style="font-size:11px;font-family:sans-serif;fill:#fff;fill-opacity:1;stroke:#fff;stroke-opacity:1;image-rendering:optimizeQuality;text-rendering:geometricPrecision" id="g383" font-size="11" transform="translate(358,73)"><rect style="stroke:none" id="rect379" width="115" height="14" x="0" y="0" clip-path="url(#clipPath31)"/><text style="fill:#000;stroke:none" id="text381" x="9" y="11" clip-path="url(#clipPath31)" xml:space="preserve">1.1: get unsigned</text></g><g style="font-size:11px;font-family:sans-serif;fill:#fff;fill-opacity:1;stroke:#fff;stroke-opacity:1;image-rendering:optimizeQuality;text-rendering:geometricPrecision" id="g389" font-size="11" transform="translate(525,152)"><rect style="stroke:none" id="rect385" width="96" height="14" x="0" y="0" clip-path="url(#clipPath32)"/><text style="fill:#000;stroke:none" id="text387" x="10" y="11" clip-path="url(#clipPath32)" xml:space="preserve">1.1.2: outputs</text></g><g style="font-size:11px;font-family:sans-serif;fill:#fff;fill-opacity:1;stroke:#fff;stroke-opacity:1;image-rendering:optimizeQuality;text-rendering:geometricPrecision" id="g395" font-size="11" transform="translate(512,122)"><rect style="stroke:none" id="rect391" width="117" height="14" x="0" y="0" clip-path="url(#clipPath33)"/><text style="fill:#000;stroke:none" id="text393" x="10" y="11" clip-path="url(#clipPath33)" xml:space="preserve">1.1.1: get outputs</text></g><g style="font-size:11px;font-family:sans-serif;fill:#fff;fill-opacity:1;stroke:#fff;stroke-opacity:1;image-rendering:optimizeQuality;text-rendering:geometricPrecision" id="g401" font-size="11" transform="translate(146,392)"><rect style="stroke:none" id="rect397" width="71" height="14" x="0" y="0" clip-path="url(#clipPath34)"/><text style="fill:#000;stroke:none" id="text399" x="10" y="11" clip-path="url(#clipPath34)" xml:space="preserve">1.6: done</text></g><g style="font-size:11px;font-family:sans-serif;fill:#fff;fill-opacity:1;stroke:#fff;stroke-opacity:1;image-rendering:optimizeQuality;text-rendering:geometricPrecision" id="g407" font-size="11" transform="translate(151,52)"><rect style="stroke:none" id="rect403" width="76" height="14" x="0" y="0" clip-path="url(#clipPath35)"/><text style="fill:#000;stroke:none" id="text405" x="10" y="11" clip-path="url(#clipPath35)" xml:space="preserve">1: transfer</text></g><g style="font-size:11px;font-family:sans-serif;fill:#fff;fill-opacity:1;stroke:#fff;stroke-opacity:1;image-rendering:optimizeQuality;text-rendering:geometricPrecision" id="g413" font-size="11" transform="translate(214,242)"><rect style="stroke:none" id="rect409" width="89" height="14" x="0" y="0" clip-path="url(#clipPath36)"/><text style="fill:#000;stroke:none" id="text411" x="10" y="11" clip-path="url(#clipPath36)" xml:space="preserve">1.3: protocol</text></g><g style="font-size:11px;font-family:sans-serif;fill:#fff;fill-opacity:1;stroke:#fff;stroke-opacity:1;image-rendering:optimizeQuality;text-rendering:geometricPrecision" id="g419" font-size="11" transform="translate(218,312)"><rect style="stroke:none" id="rect415" width="80" height="14" x="0" y="0" clip-path="url(#clipPath37)"/><text style="fill:#000;stroke:none" id="text417" x="10" y="11" clip-path="url(#clipPath37)" xml:space="preserve">1.4: signed</text></g><g style="font-size:11px;font-family:sans-serif;fill:#fff;fill-opacity:1;stroke:#fff;stroke-opacity:1;image-rendering:optimizeQuality;text-rendering:geometricPrecision" id="g425" font-size="11" transform="translate(53,252)"><rect style="stroke:none" id="rect421" width="122" height="14" x="0" y="0" clip-path="url(#clipPath38)"/><text style="fill:#000;stroke:none" id="text423" x="9" y="11" clip-path="url(#clipPath38)" xml:space="preserve">1.3.1: ask confirm.</text></g><g style="font-size:11px;font-family:sans-serif;fill:#fff;fill-opacity:1;stroke:#fff;stroke-opacity:1;image-rendering:optimizeQuality;text-rendering:geometricPrecision" id="g431" font-size="11" transform="translate(63,282)"><rect style="stroke:none" id="rect427" width="100" height="14" x="0" y="0" clip-path="url(#clipPath39)"/><text style="fill:#000;stroke:none" id="text429" x="9" y="11" clip-path="url(#clipPath39)" xml:space="preserve">1.3.2: confirm.</text></g></svg>