<svg xmlns="http://www.w3.org/2000/svg" xmlns:svg="http://www.w3.org/2000/svg" id="svg554" width="686" height="436" fill="#000" fill-opacity="0" stroke="#000" stroke-dasharray="none" stroke-dashoffset="0" stroke-linecap="square" stroke-linejoin="miter" stroke-miterlimit="10" stroke-opacity="0" stroke-width="1" color-interpolation="auto" color-rendering="auto" font-family="'Dialog'" font-size="12" font-style="normal" font-weight="normal" image-rendering="auto" shape-rendering="auto" text-rendering="auto" version="1.1"><metadata id="metadata558"/><defs id="genericDefs"><defs id="defs1"><clipPath id="clipPath1" clipPathUnits="userSpaceOnUse"><path id="path3" d="M-7 -7 L81 -7 L81 441 L-7 441 L-7 -7 Z"/></clipPath><clipPath id="clipPath2" clipPathUnits="userSpaceOnUse"><path id="path6" d="M-7 -7 L19 -7 L19 341 L-7 341 L-7 -7 Z"/></clipPath><clipPath id="clipPath3" clipPathUnits="userSpaceOnUse"><path id="path9" d="M-7 -7 L211 -7 L211 111 L-7 111 L-7 -7 Z"/></clipPath><clipPath id="clipPath4" clipPathUnits="userSpaceOnUse"><path id="path12" d="M-7 -7 L-7 111 L211 111 L211 -7 Z"/></clipPath><clipPath id="clipPath5" clipPathUnits="userSpaceOnUse"><path id="path15" d="M0 0 L0 17 L81 17 L81 0 Z"/></clipPath><clipPath id="clipPath6" clipPathUnits="userSpaceOnUse"><path id="path18" d="M-7 -7 L19 -7 L19 51 L-7 51 L-7 -7 Z"/></clipPath><clipPath id="clipPath7" clipPathUnits="userSpaceOnUse"><path id="path21" d="M-7 -7 L19 -7 L19 131 L-7 131 L-7 -7 Z"/></clipPath><clipPath id="clipPath8" clipPathUnits="userSpaceOnUse"><path id="path24" d="M-7 -7 L19 -7 L19 91 L-7 91 L-7 -7 Z"/></clipPath><clipPath id="clipPath9" clipPathUnits="userSpaceOnUse"><path id="path27" d="M-7 -7 L361 -7 L361 171 L-7 171 L-7 -7 Z"/></clipPath><clipPath id="clipPath10" clipPathUnits="userSpaceOnUse"><path id="path30" d="M-7 -7 L-7 171 L361 171 L361 -7 Z"/></clipPath><clipPath id="clipPath11" clipPathUnits="userSpaceOnUse"><path id="path33" d="M0 0 L0 17 L82 17 L82 0 Z"/></clipPath><clipPath id="clipPath12" clipPathUnits="userSpaceOnUse"><path id="path36" d="M-7 -7 L19 -7 L19 23 L-7 23 L-7 -7 Z"/></clipPath><clipPath id="clipPath13" clipPathUnits="userSpaceOnUse"><path id="path39" d="M-70 -14 L140 -14 L140 28 L-70 28 L-70 -14 Z"/></clipPath><clipPath id="clipPath14" clipPathUnits="userSpaceOnUse"><path id="path42" d="M0 0 L556 0 L556 104 L0 104 L0 0 Z"/></clipPath><clipPath id="clipPath15" clipPathUnits="userSpaceOnUse"><path id="path45" d="M317 30 L317 44 L241 44 L241 30 ZM0 0 L0 104 L521 104 L521 90 L556 90 L556 0 Z"/></clipPath><clipPath id="clipPath16" clipPathUnits="userSpaceOnUse"><path id="path48" d="M0 0 L246 0 L246 104 L0 104 L0 0 Z"/></clipPath><clipPath id="clipPath17" clipPathUnits="userSpaceOnUse"><path id="path51" d="M168 30 L168 44 L61 44 L61 30 ZM167 60 L167 74 L81 74 L81 60 ZM0 0 L0 104 L246 104 L246 0 Z"/></clipPath><clipPath id="clipPath18" clipPathUnits="userSpaceOnUse"><path id="path54" d="M167 30 L167 44 L81 44 L81 30 ZM0 0 L0 104 L246 104 L246 0 L168 0 L168 14 L61 14 L61 0 Z"/></clipPath><clipPath id="clipPath19" clipPathUnits="userSpaceOnUse"><path id="path57" d="M0 0 L256 0 L256 104 L0 104 L0 0 Z"/></clipPath><clipPath id="clipPath20" clipPathUnits="userSpaceOnUse"><path id="path60" d="M158 30 L158 44 L91 44 L91 30 ZM0 0 L0 40 L21 40 L21 54 L0 54 L0 104 L256 104 L256 0 Z"/></clipPath><clipPath id="clipPath21" clipPathUnits="userSpaceOnUse"><path id="path63" d="M171 30 L171 44 L71 44 L71 30 ZM0 0 L0 40 L43 40 L43 54 L0 54 L0 70 L31 70 L31 84 L0 84 L0 104 L71 104 L71 100 L162 100 L162 104 L246 104 L246 34 L241 34 L241 20 L246 20 L246 0 Z"/></clipPath><clipPath id="clipPath22" clipPathUnits="userSpaceOnUse"><path id="path66" d="M193 30 L193 44 L61 44 L61 30 ZM181 60 L181 74 L71 74 L71 60 ZM0 0 L0 104 L221 104 L221 90 L246 90 L246 34 L221 34 L221 20 L246 20 L246 0 Z"/></clipPath><clipPath id="clipPath23" clipPathUnits="userSpaceOnUse"><path id="path69" d="M181 30 L181 44 L71 44 L71 30 ZM0 0 L0 104 L246 104 L246 74 L221 74 L221 60 L246 60 L246 4 L221 4 L221 0 L193 0 L193 14 L61 14 L61 0 Z"/></clipPath><clipPath id="clipPath24" clipPathUnits="userSpaceOnUse"><path id="path72" d="M162 30 L162 44 L71 44 L71 30 ZM31 0 L31 14 L0 14 L0 104 L246 104 L246 74 L231 74 L231 60 L246 60 L246 0 Z"/></clipPath><clipPath id="clipPath25" clipPathUnits="userSpaceOnUse"><path id="path75" d="M161 30 L161 44 L81 44 L81 30 ZM12 0 L12 14 L0 14 L0 80 L2 80 L2 94 L0 94 L0 104 L256 104 L256 54 L241 54 L241 40 L256 40 L256 0 Z"/></clipPath><clipPath id="clipPath26" clipPathUnits="userSpaceOnUse"><path id="path78" d="M163 30 L163 44 L81 44 L81 30 ZM0 0 L0 20 L1 20 L1 34 L0 34 L0 104 L246 104 L246 0 Z"/></clipPath><clipPath id="clipPath27" clipPathUnits="userSpaceOnUse"><path id="path81" d="M302 30 L302 44 L231 44 L231 30 ZM0 0 L0 104 L556 104 L556 4 L541 4 L541 0 Z"/></clipPath><clipPath id="clipPath28" clipPathUnits="userSpaceOnUse"><path id="path84" d="M-71 -14 L142 -14 L142 28 L-71 28 L-71 -14 Z"/></clipPath><clipPath id="clipPath29" clipPathUnits="userSpaceOnUse"><path id="path87" d="M-82 -14 L164 -14 L164 28 L-82 28 L-82 -14 Z"/></clipPath><clipPath id="clipPath30" clipPathUnits="userSpaceOnUse"><path id="path90" d="M-80 -14 L160 -14 L160 28 L-80 28 L-80 -14 Z"/></clipPath><clipPath id="clipPath31" clipPathUnits="userSpaceOnUse"><path id="path93" d="M-91 -14 L182 -14 L182 28 L-91 28 L-91 -14 Z"/></clipPath><clipPath id="clipPath32" clipPathUnits="userSpaceOnUse"><path id="path96" d="M-110 -14 L220 -14 L220 28 L-110 28 L-110 -14 Z"/></clipPath><clipPath id="clipPath33" clipPathUnits="userSpaceOnUse"><path id="path99" d="M-132 -14 L264 -14 L264 28 L-132 28 L-132 -14 Z"/></clipPath><clipPath id="clipPath34" clipPathUnits="userSpaceOnUse"><path id="path102" d="M-100 -14 L200 -14 L200 28 L-100 28 L-100 -14 Z"/></clipPath><clipPath id="clipPath35" clipPathUnits="userSpaceOnUse"><path id="path105" d="M-67 -14 L134 -14 L134 28 L-67 28 L-67 -14 Z"/></clipPath><clipPath id="clipPath36" clipPathUnits="userSpaceOnUse"><path id="path108" d="M-86 -14 L172 -14 L172 28 L-86 28 L-86 -14 Z"/></clipPath><clipPath id="clipPath37" clipPathUnits="userSpaceOnUse"><path id="path111" d="M-107 -14 L214 -14 L214 28 L-107 28 L-107 -14 Z"/></clipPath><clipPath id="clipPath38" clipPathUnits="userSpaceOnUse"><path id="path114" d="M-76 -14 L152 -14 L152 28 L-76 28 L-76 -14 Z"/></clipPath></defs></defs><g style="fill:#fff;fill-opacity:1;stroke:#fff;stroke-opacity:1;text-rendering:geometricPrecision" id="g120"><rect style="stroke:none" id="rect118" width="686" height="436" x="0" y="0"/></g><g style="font-size:11px;font-family:sans-serif;fill:#f5f5f5;fill-opacity:1;stroke:#f5f5f5;stroke-opacity:1;image-rendering:optimizeQuality;text-rendering:geometricPrecision" id="g124" font-size="11" transform="translate(2,2)"><rect style="stroke:none" id="rect122" width="69" height="35" x="0" y="0" clip-path="url(#clipPath1)"/></g><g style="font-size:11px;font-family:sans-serif;fill:#000;fill-opacity:1;stroke:#000;stroke-linecap:butt;stroke-linejoin:round;stroke-miterlimit:0;stroke-opacity:1;image-rendering:optimizeQuality;text-rendering:geometricPrecision" id="g130" stroke-miterlimit="0" font-size="11" transform="translate(2,2)"><rect style="fill:none" id="rect126" width="69" height="35" x="0" y="0" clip-path="url(#clipPath1)"/><line style="fill:none;stroke-linejoin:bevel;stroke-dasharray:8,3" id="line128" x1="34" x2="34" y1="35" y2="430" clip-path="url(#clipPath1)"/></g><g style="font-size:11px;font-family:sans-serif;fill:#d5e8d4;fill-opacity:1;stroke:#d5e8d4;stroke-opacity:1;image-rendering:optimizeQuality;text-rendering:geometricPrecision" id="g134" font-size="11" transform="translate(152,2)"><rect style="stroke:none" id="rect132" width="69" height="35" x="0" y="0" clip-path="url(#clipPath1)"/></g><g style="font-size:11px;font-family:sans-serif;fill:#000;fill-opacity:1;stroke:#000;stroke-linecap:butt;stroke-linejoin:round;stroke-miterlimit:0;stroke-opacity:1;image-rendering:optimizeQuality;text-rendering:geometricPrecision" id="g140" stroke-miterlimit="0" font-size="11" transform="translate(152,2)"><rect style="fill:none" id="rect136" width="69" height="35" x="0" y="0" clip-path="url(#clipPath1)"/><line style="fill:none;stroke-linejoin:bevel;stroke-dasharray:8,3" id="line138" x1="34" x2="34" y1="35" y2="430" clip-path="url(#clipPath1)"/></g><g style="font-size:11px;font-family:sans-serif;fill:#dae8fc;fill-opacity:1;stroke:#dae8fc;stroke-opacity:1;image-rendering:optimizeQuality;text-rendering:geometricPrecision" id="g144" font-size="11" transform="translate(302,2)"><rect style="stroke:none" id="rect142" width="69" height="35" x="0" y="0" clip-path="url(#clipPath1)"/></g><g style="font-size:11px;font-family:sans-serif;fill:#000;fill-opacity:1;stroke:#000;stroke-linecap:butt;stroke-linejoin:round;stroke-miterlimit:0;stroke-opacity:1;image-rendering:optimizeQuality;text-rendering:geometricPrecision" id="g150" stroke-miterlimit="0" font-size="11" transform="translate(302,2)"><rect style="fill:none" id="rect146" width="69" height="35" x="0" y="0" clip-path="url(#clipPath1)"/><line style="fill:none;stroke-linejoin:bevel;stroke-dasharray:8,3" id="line148" x1="34" x2="34" y1="35" y2="430" clip-path="url(#clipPath1)"/></g><g style="font-size:11px;font-family:sans-serif;fill:#dae8fc;fill-opacity:1;stroke:#dae8fc;stroke-opacity:1;image-rendering:optimizeQuality;text-rendering:geometricPrecision" id="g154" font-size="11" transform="translate(462,2)"><rect style="stroke:none" id="rect152" width="69" height="35" x="0" y="0" clip-path="url(#clipPath1)"/></g><g style="font-size:11px;font-family:sans-serif;fill:#000;fill-opacity:1;stroke:#000;stroke-linecap:butt;stroke-linejoin:round;stroke-miterlimit:0;stroke-opacity:1;image-rendering:optimizeQuality;text-rendering:geometricPrecision" id="g160" stroke-miterlimit="0" font-size="11" transform="translate(462,2)"><rect style="fill:none" id="rect156" width="69" height="35" x="0" y="0" clip-path="url(#clipPath1)"/><line style="fill:none;stroke-linejoin:bevel;stroke-dasharray:8,3" id="line158" x1="34" x2="34" y1="35" y2="430" clip-path="url(#clipPath1)"/></g><g style="font-size:11px;font-family:sans-serif;fill:#ffe6cc;fill-opacity:1;stroke:#ffe6cc;stroke-opacity:1;image-rendering:optimizeQuality;text-rendering:geometricPrecision" id="g164" font-size="11" transform="translate(612,2)"><rect style="stroke:none" id="rect162" width="69" height="35" x="0" y="0" clip-path="url(#clipPath1)"/></g><g style="font-size:11px;font-family:sans-serif;fill:#000;fill-opacity:1;stroke:#000;stroke-linecap:butt;stroke-linejoin:round;stroke-miterlimit:0;stroke-opacity:1;image-rendering:optimizeQuality;text-rendering:geometricPrecision" id="g170" stroke-miterlimit="0" font-size="11" transform="translate(612,2)"><rect style="fill:none" id="rect166" width="69" height="35" x="0" y="0" clip-path="url(#clipPath1)"/><line style="fill:none;stroke-linejoin:bevel;stroke-dasharray:8,3" id="line168" x1="34" x2="34" y1="35" y2="430" clip-path="url(#clipPath1)"/></g><g style="font-size:11px;font-family:sans-serif;fill:#f5f5f5;fill-opacity:1;stroke:#f5f5f5;stroke-opacity:1;image-rendering:optimizeQuality;text-rendering:geometricPrecision" id="g174" font-size="11" transform="translate(33,72)"><rect style="stroke:none" id="rect172" width="8" height="330" x="0" y="0" clip-path="url(#clipPath2)"/></g><g style="font-size:11px;font-family:sans-serif;fill:#000;fill-opacity:1;stroke:#000;stroke-linecap:butt;stroke-linejoin:round;stroke-miterlimit:0;stroke-opacity:1;image-rendering:optimizeQuality;text-rendering:geometricPrecision" id="g178" stroke-miterlimit="0" font-size="11" transform="translate(33,72)"><rect style="fill:none" id="rect176" width="8" height="330" x="0" y="0" clip-path="url(#clipPath2)"/></g><g style="font-size:11px;font-family:sans-serif;fill:#dae8fc;fill-opacity:1;stroke:#dae8fc;stroke-opacity:1;image-rendering:optimizeQuality;text-rendering:geometricPrecision" id="g182" font-size="11" transform="translate(493,72)"><rect style="stroke:none" id="rect180" width="8" height="330" x="0" y="0" clip-path="url(#clipPath2)"/></g><g style="font-size:11px;font-family:sans-serif;fill:#000;fill-opacity:1;stroke:#000;stroke-linecap:butt;stroke-linejoin:round;stroke-miterlimit:0;stroke-opacity:1;image-rendering:optimizeQuality;text-rendering:geometricPrecision" id="g186" stroke-miterlimit="0" font-size="11" transform="translate(493,72)"><rect style="fill:none" id="rect184" width="8" height="330" x="0" y="0" clip-path="url(#clipPath2)"/></g><g style="font-size:11px;font-family:sans-serif;fill:#000;fill-opacity:1;stroke:#000;stroke-linecap:butt;stroke-linejoin:round;stroke-miterlimit:0;stroke-opacity:1;image-rendering:optimizeQuality;text-rendering:geometricPrecision" id="g190" stroke-miterlimit="0" font-size="11" transform="translate(472,92)"><rect style="fill:none" id="rect188" width="200" height="100" x="0" y="0" clip-path="url(#clipPath4)"/></g><g style="font-size:11px;font-family:sans-serif;fill:#fff;fill-opacity:1;stroke:#fff;stroke-opacity:1;image-rendering:optimizeQuality;text-rendering:geometricPrecision" id="g194" font-size="11" transform="translate(472,92)"><path style="stroke:none" id="path192" d="m 80,0 v 8 l -6,8 H 0 V 0 Z" clip-path="url(#clipPath4)"/></g><g style="font-size:11px;font-family:sans-serif;fill:#000;fill-opacity:1;stroke:#000;stroke-linecap:butt;stroke-linejoin:round;stroke-miterlimit:0;stroke-opacity:1;image-rendering:optimizeQuality;text-rendering:geometricPrecision" id="g198" stroke-miterlimit="0" font-size="11" transform="translate(472,92)"><path style="fill:none" id="path196" d="m 80,0 v 8 l -6,8 H 0 V 0 Z" clip-path="url(#clipPath4)"/></g><g style="font-weight:700;font-size:11px;font-family:sans-serif;fill:#000;fill-opacity:1;stroke:#000;stroke-opacity:1;image-rendering:optimizeQuality;text-rendering:geometricPrecision" id="g204" font-size="11" font-weight="bold" transform="translate(472,92)"><text style="stroke:none" id="text200" x="12" y="11" clip-path="url(#clipPath5)" xml:space="preserve">sd</text><text style="font-weight:400;stroke:none" id="text202" x="27" y="11" clip-path="url(#clipPath5)" font-weight="normal" xml:space="preserve">Outputs</text></g><g style="font-size:11px;font-family:sans-serif;fill:#ffe6cc;fill-opacity:1;stroke:#ffe6cc;stroke-opacity:1;image-rendering:optimizeQuality;text-rendering:geometricPrecision" id="g208" font-size="11" transform="translate(643,132)"><rect style="stroke:none" id="rect206" width="8" height="40" x="0" y="0" clip-path="url(#clipPath6)"/></g><g style="font-size:11px;font-family:sans-serif;fill:#000;fill-opacity:1;stroke:#000;stroke-linecap:butt;stroke-linejoin:round;stroke-miterlimit:0;stroke-opacity:1;image-rendering:optimizeQuality;text-rendering:geometricPrecision" id="g212" stroke-miterlimit="0" font-size="11" transform="translate(643,132)"><rect style="fill:none" id="rect210" width="8" height="40" x="0" y="0" clip-path="url(#clipPath6)"/></g><g style="font-size:11px;font-family:sans-serif;fill:#dae8fc;fill-opacity:1;stroke:#dae8fc;stroke-opacity:1;image-rendering:optimizeQuality;text-rendering:geometricPrecision" id="g216" font-size="11" transform="translate(333,222)"><rect style="stroke:none" id="rect214" width="8" height="120" x="0" y="0" clip-path="url(#clipPath7)"/></g><g style="font-size:11px;font-family:sans-serif;fill:#000;fill-opacity:1;stroke:#000;stroke-linecap:butt;stroke-linejoin:round;stroke-miterlimit:0;stroke-opacity:1;image-rendering:optimizeQuality;text-rendering:geometricPrecision" id="g220" stroke-miterlimit="0" font-size="11" transform="translate(333,222)"><rect style="fill:none" id="rect218" width="8" height="120" x="0" y="0" clip-path="url(#clipPath7)"/></g><g style="font-size:11px;font-family:sans-serif;fill:#d5e8d4;fill-opacity:1;stroke:#d5e8d4;stroke-opacity:1;image-rendering:optimizeQuality;text-rendering:geometricPrecision" id="g224" font-size="11" transform="translate(183,232)"><rect style="stroke:none" id="rect222" width="8" height="80" x="0" y="0" clip-path="url(#clipPath8)"/></g><g style="font-size:11px;font-family:sans-serif;fill:#000;fill-opacity:1;stroke:#000;stroke-linecap:butt;stroke-linejoin:round;stroke-miterlimit:0;stroke-opacity:1;image-rendering:optimizeQuality;text-rendering:geometricPrecision" id="g228" stroke-miterlimit="0" font-size="11" transform="translate(183,232)"><rect style="fill:none" id="rect226" width="8" height="80" x="0" y="0" clip-path="url(#clipPath8)"/></g><g style="font-size:11px;font-family:sans-serif;fill:#000;fill-opacity:1;stroke:#000;stroke-linecap:butt;stroke-linejoin:round;stroke-miterlimit:0;stroke-opacity:1;image-rendering:optimizeQuality;text-rendering:geometricPrecision" id="g232" stroke-miterlimit="0" font-size="11" transform="translate(12,192)"><rect style="fill:none" id="rect230" width="350" height="160" x="0" y="0" clip-path="url(#clipPath10)"/></g><g style="font-size:11px;font-family:sans-serif;fill:#fff;fill-opacity:1;stroke:#fff;stroke-opacity:1;image-rendering:optimizeQuality;text-rendering:geometricPrecision" id="g236" font-size="11" transform="translate(12,192)"><path style="stroke:none" id="path234" d="m 81,0 v 8 l -6,8 H 0 V 0 Z" clip-path="url(#clipPath10)"/></g><g style="font-size:11px;font-family:sans-serif;fill:#000;fill-opacity:1;stroke:#000;stroke-linecap:butt;stroke-linejoin:round;stroke-miterlimit:0;stroke-opacity:1;image-rendering:optimizeQuality;text-rendering:geometricPrecision" id="g240" stroke-miterlimit="0" font-size="11" transform="translate(12,192)"><path style="fill:none" id="path238" d="m 81,0 v 8 l -6,8 H 0 V 0 Z" clip-path="url(#clipPath10)"/></g><g style="font-weight:700;font-size:11px;font-family:sans-serif;fill:#000;fill-opacity:1;stroke:#000;stroke-opacity:1;image-rendering:optimizeQuality;text-rendering:geometricPrecision" id="g246" font-size="11" font-weight="bold" transform="translate(12,192)"><text style="stroke:none" id="text242" x="12" y="11" clip-path="url(#clipPath11)" xml:space="preserve">sd</text><text style="font-weight:400;stroke:none" id="text244" x="27" y="11" clip-path="url(#clipPath11)" font-weight="normal" xml:space="preserve">Protocol</text></g><g style="font-size:11px;font-family:sans-serif;fill:#ffe6cc;fill-opacity:1;stroke:#ffe6cc;stroke-opacity:1;image-rendering:optimizeQuality;text-rendering:geometricPrecision" id="g250" font-size="11" transform="translate(643,342)"><rect style="stroke:none" id="rect248" width="8" height="12" x="0" y="0" clip-path="url(#clipPath12)"/></g><g style="font-size:11px;font-family:sans-serif;fill:#000;fill-opacity:1;stroke:#000;stroke-linecap:butt;stroke-linejoin:round;stroke-miterlimit:0;stroke-opacity:1;image-rendering:optimizeQuality;text-rendering:geometricPrecision" id="g254" stroke-miterlimit="0" font-size="11" transform="translate(643,342)"><rect style="fill:none" id="rect252" width="8" height="12" x="0" y="0" clip-path="url(#clipPath12)"/></g><g style="font-size:11px;font-family:sans-serif;fill:#000;fill-opacity:1;stroke:#000;stroke-opacity:1;image-rendering:optimizeQuality;text-rendering:geometricPrecision" id="g258" font-size="11" transform="translate(612,2)"><text style="stroke:none" id="text256" x="21" y="11" clip-path="url(#clipPath13)" xml:space="preserve">Node</text></g><g style="font-size:11px;font-family:sans-serif;fill:#000;fill-opacity:1;stroke:#000;stroke-opacity:1;image-rendering:optimizeQuality;text-rendering:geometricPrecision" id="g262" font-size="11" transform="translate(462,2)"><text style="stroke:none" id="text260" x="10" y="11" clip-path="url(#clipPath13)" xml:space="preserve">SW wallet</text></g><g style="font-size:11px;font-family:sans-serif;fill:#000;fill-opacity:1;stroke:#000;stroke-opacity:1;image-rendering:optimizeQuality;text-rendering:geometricPrecision" id="g266" font-size="11" transform="translate(302,2)"><text style="stroke:none" id="text264" x="18" y="11" clip-path="url(#clipPath13)" xml:space="preserve">Client</text></g><g style="font-size:11px;font-family:sans-serif;fill:#000;fill-opacity:1;stroke:#000;stroke-opacity:1;image-rendering:optimizeQuality;text-rendering:geometricPrecision" id="g270" font-size="11" transform="translate(152,2)"><text style="stroke:none" id="text268" x="16" y="11" clip-path="url(#clipPath13)" xml:space="preserve">Trezor</text></g><g style="font-size:11px;font-family:sans-serif;fill:#000;fill-opacity:1;stroke:#000;stroke-opacity:1;image-rendering:optimizeQuality;text-rendering:geometricPrecision" id="g274" font-size="11" transform="translate(2,2)"><text style="stroke:none" id="text272" x="23" y="11" clip-path="url(#clipPath13)" xml:space="preserve">User</text></g><g style="font-size:11px;font-family:sans-serif;fill:#000;fill-opacity:1;stroke:#000;stroke-linecap:butt;stroke-linejoin:round;stroke-opacity:1;image-rendering:optimizeQuality;text-rendering:geometricPrecision" id="g282" font-size="11" transform="translate(-9,22)"><line style="fill:none" id="line276" x1="50" x2="502" y1="50" y2="50" clip-path="url(#clipPath15)"/><line style="fill:none" id="line278" x1="502" x2="490" y1="50" y2="44" clip-path="url(#clipPath15)"/><line style="fill:none" id="line280" x1="502" x2="490" y1="50" y2="56" clip-path="url(#clipPath15)"/></g><g style="font-size:11px;font-family:sans-serif;fill:#000;fill-opacity:1;stroke:#000;stroke-linecap:butt;stroke-linejoin:round;stroke-opacity:1;image-rendering:optimizeQuality;text-rendering:geometricPrecision" id="g290" font-size="11" transform="translate(451,82)"><line style="fill:none" id="line284" x1="50" x2="192" y1="50" y2="50" clip-path="url(#clipPath17)"/><line style="fill:none" id="line286" x1="192" x2="180" y1="50" y2="44" clip-path="url(#clipPath17)"/><line style="fill:none" id="line288" x1="192" x2="180" y1="50" y2="56" clip-path="url(#clipPath17)"/></g><g style="font-size:11px;font-family:sans-serif;fill:#000;fill-opacity:1;stroke:#000;stroke-linecap:butt;stroke-linejoin:round;stroke-miterlimit:0;stroke-dasharray:8,3;stroke-opacity:1;image-rendering:optimizeQuality;text-rendering:geometricPrecision" id="g298" stroke-miterlimit="0" font-size="11" transform="translate(451,112)"><line style="fill:none" id="line292" x1="192" x2="50" y1="50" y2="50" clip-path="url(#clipPath18)"/><line style="fill:none;stroke-miterlimit:10;stroke-dasharray:none" id="line294" x1="50" x2="62" y1="50" y2="56" stroke-miterlimit="10" clip-path="url(#clipPath18)"/><line style="fill:none;stroke-miterlimit:10;stroke-dasharray:none" id="line296" x1="50" x2="62" y1="50" y2="44" stroke-miterlimit="10" clip-path="url(#clipPath18)"/></g><g style="font-size:11px;font-family:sans-serif;fill:#000;fill-opacity:1;stroke:#000;stroke-linecap:butt;stroke-linejoin:round;stroke-opacity:1;image-rendering:optimizeQuality;text-rendering:geometricPrecision" id="g306" font-size="11" transform="translate(291,172)"><line style="fill:none" id="line300" x1="202" x2="50" y1="50" y2="50" clip-path="url(#clipPath20)"/><line style="fill:none" id="line302" x1="50" x2="62" y1="50" y2="56" clip-path="url(#clipPath20)"/><line style="fill:none" id="line304" x1="50" x2="62" y1="50" y2="44" clip-path="url(#clipPath20)"/></g><g style="font-size:11px;font-family:sans-serif;fill:#000;fill-opacity:1;stroke:#000;stroke-linecap:butt;stroke-linejoin:round;stroke-opacity:1;image-rendering:optimizeQuality;text-rendering:geometricPrecision" id="g314" font-size="11" transform="translate(141,182)"><line style="fill:none" id="line308" x1="192" x2="50" y1="50" y2="50" clip-path="url(#clipPath21)"/><line style="fill:none" id="line310" x1="50" x2="62" y1="50" y2="56" clip-path="url(#clipPath21)"/><line style="fill:none" id="line312" x1="50" x2="62" y1="50" y2="44" clip-path="url(#clipPath21)"/></g><g style="font-size:11px;font-family:sans-serif;fill:#000;fill-opacity:1;stroke:#000;stroke-linecap:butt;stroke-linejoin:round;stroke-opacity:1;image-rendering:optimizeQuality;text-rendering:geometricPrecision" id="g322" font-size="11" transform="translate(-9,192)"><line style="fill:none" id="line316" x1="192" x2="50" y1="50" y2="50" clip-path="url(#clipPath22)"/><line style="fill:none" id="line318" x1="50" x2="62" y1="50" y2="56" clip-path="url(#clipPath22)"/><line style="fill:none" id="line320" x1="50" x2="62" y1="50" y2="44" clip-path="url(#clipPath22)"/></g><g style="font-size:11px;font-family:sans-serif;fill:#000;fill-opacity:1;stroke:#000;stroke-linecap:butt;stroke-linejoin:round;stroke-miterlimit:0;stroke-dasharray:8,3;stroke-opacity:1;image-rendering:optimizeQuality;text-rendering:geometricPrecision" id="g330" stroke-miterlimit="0" font-size="11" transform="translate(-9,222)"><line style="fill:none" id="line324" x1="50" x2="192" y1="50" y2="50" clip-path="url(#clipPath23)"/><line style="fill:none;stroke-miterlimit:10;stroke-dasharray:none" id="line326" x1="192" x2="180" y1="50" y2="44" stroke-miterlimit="10" clip-path="url(#clipPath23)"/><line style="fill:none;stroke-miterlimit:10;stroke-dasharray:none" id="line328" x1="192" x2="180" y1="50" y2="56" stroke-miterlimit="10" clip-path="url(#clipPath23)"/></g><g style="font-size:11px;font-family:sans-serif;fill:#000;fill-opacity:1;stroke:#000;stroke-linecap:butt;stroke-linejoin:round;stroke-miterlimit:0;stroke-dasharray:8,3;stroke-opacity:1;image-rendering:optimizeQuality;text-rendering:geometricPrecision" id="g338" stroke-miterlimit="0" font-size="11" transform="translate(141,252)"><line style="fill:none" id="line332" x1="50" x2="192" y1="50" y2="50" clip-path="url(#clipPath24)"/><line style="fill:none;stroke-miterlimit:10;stroke-dasharray:none" id="line334" x1="192" x2="180" y1="50" y2="44" stroke-miterlimit="10" clip-path="url(#clipPath24)"/><line style="fill:none;stroke-miterlimit:10;stroke-dasharray:none" id="line336" x1="192" x2="180" y1="50" y2="56" stroke-miterlimit="10" clip-path="url(#clipPath24)"/></g><g style="font-size:11px;font-family:sans-serif;fill:#000;fill-opacity:1;stroke:#000;stroke-linecap:butt;stroke-linejoin:round;stroke-miterlimit:0;stroke-dasharray:8,3;stroke-opacity:1;image-rendering:optimizeQuality;text-rendering:geometricPrecision" id="g346" stroke-miterlimit="0" font-size="11" transform="translate(291,282)"><line style="fill:none" id="line340" x1="50" x2="202" y1="50" y2="50" clip-path="url(#clipPath25)"/><line style="fill:none;stroke-miterlimit:10;stroke-dasharray:none" id="line342" x1="202" x2="190" y1="50" y2="44" stroke-miterlimit="10" clip-path="url(#clipPath25)"/><line style="fill:none;stroke-miterlimit:10;stroke-dasharray:none" id="line344" x1="202" x2="190" y1="50" y2="56" stroke-miterlimit="10" clip-path="url(#clipPath25)"/></g><g style="font-size:11px;font-family:sans-serif;fill:#000;fill-opacity:1;stroke:#000;stroke-linecap:butt;stroke-linejoin:round;stroke-opacity:1;image-rendering:optimizeQuality;text-rendering:geometricPrecision" id="g354" font-size="11" transform="translate(451,292)"><line style="fill:none" id="line348" x1="50" x2="192" y1="50" y2="50" clip-path="url(#clipPath26)"/><line style="fill:none" id="line350" x1="192" x2="180" y1="50" y2="44" clip-path="url(#clipPath26)"/><line style="fill:none" id="line352" x1="192" x2="180" y1="50" y2="56" clip-path="url(#clipPath26)"/></g><g style="font-size:11px;font-family:sans-serif;fill:#000;fill-opacity:1;stroke:#000;stroke-linecap:butt;stroke-linejoin:round;stroke-miterlimit:0;stroke-dasharray:8,3;stroke-opacity:1;image-rendering:optimizeQuality;text-rendering:geometricPrecision" id="g362" stroke-miterlimit="0" font-size="11" transform="translate(-9,332)"><line style="fill:none" id="line356" x1="502" x2="50" y1="50" y2="50" clip-path="url(#clipPath27)"/><line style="fill:none;stroke-miterlimit:10;stroke-dasharray:none" id="line358" x1="50" x2="62" y1="50" y2="56" stroke-miterlimit="10" clip-path="url(#clipPath27)"/><line style="fill:none;stroke-miterlimit:10;stroke-dasharray:none" id="line360" x1="50" x2="62" y1="50" y2="44" stroke-miterlimit="10" clip-path="url(#clipPath27)"/></g><g style="font-size:11px;font-family:sans-serif;fill:#fff;fill-opacity:1;stroke:#fff;stroke-opacity:1;image-rendering:optimizeQuality;text-rendering:geometricPrecision" id="g368" font-size="11" transform="translate(222,362)"><rect style="stroke:none" id="rect364" width="71" height="14" x="0" y="0" clip-path="url(#clipPath28)"/><text style="fill:#000;stroke:none" id="text366" x="10" y="11" clip-path="url(#clipPath28)" xml:space="preserve">1.6: done</text></g><g style="font-size:11px;font-family:sans-serif;fill:#fff;fill-opacity:1;stroke:#fff;stroke-opacity:1;image-rendering:optimizeQuality;text-rendering:geometricPrecision" id="g374" font-size="11" transform="translate(532,322)"><rect style="stroke:none" id="rect370" width="82" height="14" x="0" y="0" clip-path="url(#clipPath29)"/><text style="fill:#000;stroke:none" id="text372" x="9" y="11" clip-path="url(#clipPath29)" xml:space="preserve">1.5: submit</text></g><g style="font-size:11px;font-family:sans-serif;fill:#fff;fill-opacity:1;stroke:#fff;stroke-opacity:1;image-rendering:optimizeQuality;text-rendering:geometricPrecision" id="g380" font-size="11" transform="translate(372,312)"><rect style="stroke:none" id="rect376" width="80" height="14" x="0" y="0" clip-path="url(#clipPath30)"/><text style="fill:#000;stroke:none" id="text378" x="10" y="11" clip-path="url(#clipPath30)" xml:space="preserve">1.4: signed</text></g><g style="font-size:11px;font-family:sans-serif;fill:#fff;fill-opacity:1;stroke:#fff;stroke-opacity:1;image-rendering:optimizeQuality;text-rendering:geometricPrecision" id="g386" font-size="11" transform="translate(212,282)"><rect style="stroke:none" id="rect382" width="91" height="14" x="0" y="0" clip-path="url(#clipPath31)"/><text style="fill:#000;stroke:none" id="text384" x="9" y="11" clip-path="url(#clipPath31)" xml:space="preserve">1.3.2: signed</text></g><g style="font-size:11px;font-family:sans-serif;fill:#fff;fill-opacity:1;stroke:#fff;stroke-opacity:1;image-rendering:optimizeQuality;text-rendering:geometricPrecision" id="g392" font-size="11" transform="translate(62,252)"><rect style="stroke:none" id="rect388" width="110" height="14" x="0" y="0" clip-path="url(#clipPath32)"/><text style="fill:#000;stroke:none" id="text390" x="10" y="11" clip-path="url(#clipPath32)" xml:space="preserve">1.3.1.2: confirm.</text></g><g style="font-size:11px;font-family:sans-serif;fill:#fff;fill-opacity:1;stroke:#fff;stroke-opacity:1;image-rendering:optimizeQuality;text-rendering:geometricPrecision" id="g398" font-size="11" transform="translate(52,222)"><rect style="stroke:none" id="rect394" width="132" height="14" x="0" y="0" clip-path="url(#clipPath33)"/><text style="fill:#000;stroke:none" id="text396" x="10" y="11" clip-path="url(#clipPath33)" xml:space="preserve">1.3.1.1: ask confirm.</text></g><g style="font-size:11px;font-family:sans-serif;fill:#fff;fill-opacity:1;stroke:#fff;stroke-opacity:1;image-rendering:optimizeQuality;text-rendering:geometricPrecision" id="g404" font-size="11" transform="translate(212,212)"><rect style="stroke:none" id="rect400" width="100" height="14" x="0" y="0" clip-path="url(#clipPath34)"/><text style="fill:#000;stroke:none" id="text402" x="9" y="11" clip-path="url(#clipPath34)" xml:space="preserve">1.3.1: protocol</text></g><g style="font-size:11px;font-family:sans-serif;fill:#fff;fill-opacity:1;stroke:#fff;stroke-opacity:1;image-rendering:optimizeQuality;text-rendering:geometricPrecision" id="g410" font-size="11" transform="translate(382,202)"><rect style="stroke:none" id="rect406" width="67" height="14" x="0" y="0" clip-path="url(#clipPath35)"/><text style="fill:#000;stroke:none" id="text408" x="10" y="11" clip-path="url(#clipPath35)" xml:space="preserve">1.3: sign</text></g><g style="font-size:11px;font-family:sans-serif;fill:#fff;fill-opacity:1;stroke:#fff;stroke-opacity:1;image-rendering:optimizeQuality;text-rendering:geometricPrecision" id="g416" font-size="11" transform="translate(532,142)"><rect style="stroke:none" id="rect412" width="86" height="14" x="0" y="0" clip-path="url(#clipPath36)"/><text style="fill:#000;stroke:none" id="text414" x="10" y="11" clip-path="url(#clipPath36)" xml:space="preserve">1.2: outputs</text></g><g style="font-size:11px;font-family:sans-serif;fill:#fff;fill-opacity:1;stroke:#fff;stroke-opacity:1;image-rendering:optimizeQuality;text-rendering:geometricPrecision" id="g422" font-size="11" transform="translate(512,112)"><rect style="stroke:none" id="rect418" width="107" height="14" x="0" y="0" clip-path="url(#clipPath37)"/><text style="fill:#000;stroke:none" id="text420" x="9" y="11" clip-path="url(#clipPath37)" xml:space="preserve">1.1: get outputs</text></g><g style="font-size:11px;font-family:sans-serif;fill:#fff;fill-opacity:1;stroke:#fff;stroke-opacity:1;image-rendering:optimizeQuality;text-rendering:geometricPrecision" id="g428" font-size="11" transform="translate(232,52)"><rect style="stroke:none" id="rect424" width="76" height="14" x="0" y="0" clip-path="url(#clipPath38)"/><text style="fill:#000;stroke:none" id="text426" x="10" y="11" clip-path="url(#clipPath38)" xml:space="preserve">1: transfer</text></g></svg>